# xmcd
# Copyright (C) 1995-1998 Ti Kan
#
# Track frame offsets:
#       150
#       18401
#       33022
#       50600
#       61193
#       87047
#       99078
#       113541
#       128994
#       142656
#       153174
#
# Disc length: 2373 seconds
#
# Revision: 2
# Processed by: cddbd v1.4PL0 Copyright (c) Steve Scherf et al.
# Submitted via: CD-Transfer v1.0
#
DISCID=7309430b
DTITLE=Jimy Hofer Band - Austin.. Oder So
DYEAR=1996
DGENRE=
TTITLE0=One Meat Ball
TTITLE1=Born In Bern
TTITLE2=Härz Us Stei
TTITLE3=My Parking Ticket
TTITLE4=Tricky Dicky
TTITLE5=Bravest Cowboy
TTITLE6=Zug Vo Züri
TTITLE7=Run Baby Run
TTITLE8=Louisiana Dream
TTITLE9=Ha Di Gsuecht
TTITLE10=Härz Us Stei (Instr.)
EXTD=
EXTT0=
EXTT1=
EXTT2=
EXTT3=
EXTT4=
EXTT5=
EXTT6=
EXTT7=
EXTT8=
EXTT9=
EXTT10=
PLAYORDER=
